<svg id="Tidbo-Logo" xmlns="http://www.w3.org/2000/svg" viewBox="0 0 3334.62 841.74"><defs><style>.cls-1{fill:#243746;}.cls-2{fill:#00bed6;}.cls-3{fill:#fff;}</style></defs><title>tidbo_logo_color</title><g id="Tidbo_Logo" data-name="Tidbo Logo"><g id="Text"><path class="cls-1" d="M1186.14,417.38H1071V841.74H918.74V417.38H819.91V300h98.83V101.15H1071V300h115.1Z" transform="translate(0)"/><path class="cls-2" d="M1384.12,111.7c0,43.33-36.43,77.81-81.74,77.81-44.31,0-81.74-34.48-81.74-77.81s37.43-76.82,81.74-76.82C1347.69,34.88,1384.12,68.36,1384.12,111.7Z" transform="translate(0)"/><path class="cls-1" d="M1226.81,300h152.31V841.74H1226.81Z" transform="translate(0)"/><path class="cls-1" d="M2034.82,0V841.74H1882.51V763.85c-38.36,53.48-113.93,77.89-174.39,77.89-139.52,0-266.24-108.12-266.24-282.52S1568.6,276.7,1708.12,276.7c62.78,0,136,23.26,174.39,77.9V0Zm-157,559.22c0-83.71-69.75-139.51-140.67-139.51-76.74,0-140.68,59.29-140.68,139.51,0,79.06,63.94,140.68,140.68,140.68C1811.59,699.9,1877.86,641.77,1877.86,559.22Z" transform="translate(0)"/><path class="cls-1" d="M2723.09,559.22c0,174.4-126.73,282.52-266.24,282.52-61.62,0-136-23.25-174.4-77.89v77.89h-152.3V0h152.3V354.6c38.37-54.64,112.78-77.9,174.4-77.9C2596.36,276.7,2723.09,384.83,2723.09,559.22Zm-155.79,0c0-80.22-62.79-139.51-139.52-139.51-70.92,0-140.68,55.8-140.68,139.51,0,82.55,66.27,140.68,140.68,140.68C2504.51,699.9,2567.3,638.28,2567.3,559.22Z" transform="translate(0)"/><path class="cls-1" d="M2751,559.22c0-172.07,137.19-283.68,291.82-283.68s291.82,111.61,291.82,283.68c0,170.91-137.19,282.52-291.82,282.52S2751,730.13,2751,559.22Zm429,0c0-84.87-61.62-141.84-137.19-141.84s-137.19,57-137.19,141.84c0,83.71,61.62,140.68,137.19,140.68S3180,642.93,3180,559.22Z" transform="translate(0)"/></g><g id="Logo"><path class="cls-1" d="M761.88,94.72V306c-299.16,0-542.58,238.5-550.53,535.72H0C8,427.82,346.05,94.72,761.88,94.72Z" transform="translate(0)"/><path class="cls-1" d="M761.88,372.36V591.79c-141.3,0-256.78,110.59-264.56,250H277.72C285.65,581.16,499.36,372.36,761.88,372.36Z" transform="translate(0)"/><path class="cls-1" d="M761.88,658.47V841.74H564.13C571.8,739.24,657.4,658.47,761.88,658.47Z" transform="translate(0)"/><path class="cls-3" d="M761.88,372.36V591.79c-141.3,0-256.78,110.59-264.56,250H277.72C285.65,581.16,499.36,372.36,761.88,372.36Z" transform="translate(0)"/><path class="cls-3" d="M761.88,658.47V841.74H564.13C571.8,739.24,657.4,658.47,761.88,658.47Z" transform="translate(0)"/><path class="cls-1" d="M761.88,372.36V591.79c-141.3,0-256.78,110.59-264.56,250H277.72C285.65,581.16,499.36,372.36,761.88,372.36Z" transform="translate(0)"/><path class="cls-1" d="M761.88,658.47V841.74H564.13C571.8,739.24,657.4,658.47,761.88,658.47Z" transform="translate(0)"/><path class="cls-3" d="M761.88,658.47V841.74H564.13C571.8,739.24,657.4,658.47,761.88,658.47Z" transform="translate(0)"/><path class="cls-1" d="M761.88,658.47V841.74H564.13C571.8,739.24,657.4,658.47,761.88,658.47Z" transform="translate(0)"/></g></g></svg>